<svg class="icon" style="width: 200; height: 200;vertical-align: middle;fill: currentColor;overflow: hidden;" viewBox="0 0 1024 1024" version="1.1" xmlns="http://www.w3.org/2000/svg" p-id="1505"><path d="M626.857423 569.616232c73.113181-39.629579 122.793674-116.984365 122.936937-205.955722l0.005117 0 0-39.090297-0.014326 0C749.221308 195.519022 644.441916 91.074252 515.256672 91.074252c-129.185244 0-233.965659 104.44477-234.529501 233.495962l-0.013303 0 0 39.090297 0.004093 0c0.14224 89.050152 49.912783 166.461219 123.131365 206.061123C270.105253 595.087347 163.74997 672.660096 163.74997 837.668221c0 16.639982 18.745946 35.211966 35.386952 35.211966l633.016191 0c16.60212 0 35.223223-18.611893 35.223223-35.211966C867.375312 671.819962 760.71406 594.748632 626.857423 569.616232z" p-id="1506"></path></svg>