<svg class="icon" style="width: 200; height: 200;vertical-align: middle;fill: currentColor;overflow: hidden;" viewBox="0 0 1024 1024" version="1.1" xmlns="http://www.w3.org/2000/svg" p-id="1692"><path d="M512 0.031999c-282.775163 0-511.984 229.240836-511.984 511.984s229.208837 511.984 511.984 511.984 511.984-229.240836 511.984-511.984S794.743164 0.031999 512 0.031999zM464.0015 189.914065c0-26.495172 21.471329-47.9985 47.9985-47.9985s47.9985 21.503328 47.9985 47.9985l0 410.931158c0 26.495172-21.471329 47.9985-47.9985 47.9985s-47.9985-21.503328-47.9985-47.9985L464.0015 189.914065zM512 882.084435c-42.718665 0-77.341583-34.622918-77.341583-77.341583 0-42.686666 34.622918-77.341583 77.341583-77.341583s77.341583 34.622918 77.341583 77.341583C589.309584 847.493516 554.718665 882.084435 512 882.084435z" p-id="1693"></path></svg>