<?xml version="1.0" standalone="no"?><!DOCTYPE svg PUBLIC "-//W3C//DTD SVG 1.1//EN" "http://www.w3.org/Graphics/SVG/1.1/DTD/svg11.dtd"><svg width="32" height="32" viewBox="0 0 32 32" version="1.1" xmlns="http://www.w3.org/2000/svg" xmlns:xlink="http://www.w3.org/1999/xlink"><defs><style type="text/css"><![CDATA[
@font-face { font-family: ifont; src: url("//at.alicdn.com/t/font_1442373896_4754455.eot?#iefix") format("embedded-opentype"), url("//at.alicdn.com/t/font_1442373896_4754455.woff") format("woff"), url("//at.alicdn.com/t/font_1442373896_4754455.ttf") format("truetype"), url("//at.alicdn.com/t/font_1442373896_4754455.svg#ifont") format("svg"); }

]]></style></defs><g class="transform-group"><g transform="scale(0.03125, 0.03125)"><path d="M512.559237 960.352401c-246.812245 0-447.596178-200.814632-447.596178-447.616644 0-246.812245 200.783932-447.626877 447.596178-447.626877 246.832711 0 447.616644 200.813608 447.616644 447.626877C960.175881 759.537769 759.391948 960.352401 512.559237 960.352401M512.559237 99.534947c-227.801263 0-413.189553 185.367825-413.189553 413.199787 0 227.802286 185.388291 413.190577 413.189553 413.190577 227.812519 0 413.220253-185.388291 413.220253-413.190577C925.778466 284.902772 740.371756 99.534947 512.559237 99.534947M288.233122 492.330008l448.693162 0 0 40.790008-448.693162 0 0-40.790008ZM492.184187 288.378943l40.790008 0 0 448.692139-40.790008 0 0-448.692139Z" fill="#a9b7b7"></path></g></g></svg>