<?xml version="1.0" standalone="no"?><!DOCTYPE svg PUBLIC "-//W3C//DTD SVG 1.1//EN" "http://www.w3.org/Graphics/SVG/1.1/DTD/svg11.dtd"><svg width="16" height="16" viewBox="0 0 16 16" version="1.1" xmlns="http://www.w3.org/2000/svg" xmlns:xlink="http://www.w3.org/1999/xlink"><defs><style type="text/css"><![CDATA[
@font-face { font-family: ifont; src: url("//at.alicdn.com/t/font_1442373896_4754455.eot?#iefix") format("embedded-opentype"), url("//at.alicdn.com/t/font_1442373896_4754455.woff") format("woff"), url("//at.alicdn.com/t/font_1442373896_4754455.ttf") format("truetype"), url("//at.alicdn.com/t/font_1442373896_4754455.svg#ifont") format("svg"); }

]]></style></defs><g class="transform-group"><g transform="scale(0.015625, 0.015625)"><path d="M489.168896 118.89664c24.747008-10.752 53.761024-9.216 76.544 0 19.434496 7.862272 306.47296 129.43872 347.648 146.944 42.752 18.176 36.168704 49.742848 0 65.024-36.168704 15.281152-321.732608 135.979008-344.148992 144.896-30.891008 12.288-55.467008 11.52-80.043008 1.024-22.29248-9.520128-328.055808-138.496-355.772416-150.144s-27.459584-45.184 0-56.96C172.608512 252.864512 456.918016 132.909056 489.168896 118.89664zM172.070912 298.10688c0 0 322.561024 136.848384 336.555008 142.401536 13.993984 5.5552 25.598976 5.385216 38.569984 0 15.884288-6.592512 336.214016-142.420992 336.214016-142.420992s-330.110976-140.022784-337.92-143.350784-26.425344-3.331072-34.305024 0C503.305216 158.067712 172.070912 298.10688 172.070912 298.10688zM904.230912 421.48864c0 0-341.060608 144.050176-356.944896 150.643712-12.971008 5.385216-24.576 5.556224-38.569984 0-13.993984-5.5552-357.296128-150.643712-357.296128-150.643712L135.4752 459.101184c0 0 331.4944 139.78624 353.783808 149.306368 24.576 10.496 49.152 11.264 80.043008-1.024C591.7184 598.46656 920.614912 459.37664 920.614912 459.37664L904.230912 421.48864zM904.230912 552.958976c0 0-341.060608 144.0512-356.944896 150.643712-12.971008 5.384192-24.576 5.554176-38.569984 0S151.419904 552.958976 151.419904 552.958976L135.4752 590.57152c0 0 331.4944 139.785216 353.783808 149.305344 24.576 10.496 49.152 11.264 80.043008-1.024 22.416384-8.915968 351.312896-148.005888 351.312896-148.005888L904.230912 552.958976zM904.042496 684.896256c0 0-341.059584 144.0512-356.943872 150.642688-12.971008 5.384192-24.576 5.5552-38.569984 0-13.993984-5.554176-357.296128-150.642688-357.296128-150.642688l-15.944704 37.612544c0 0 331.493376 139.785216 353.783808 149.305344 24.576 10.497024 49.152 11.265024 80.043008-1.024 22.416384-8.916992 351.311872-148.005888 351.311872-148.005888L904.042496 684.896256z" fill="#272636"></path></g></g></svg>