<?xml version="1.0" standalone="no"?><!DOCTYPE svg PUBLIC "-//W3C//DTD SVG 1.1//EN" "http://www.w3.org/Graphics/SVG/1.1/DTD/svg11.dtd"><svg t="1484575862126" class="icon" style="" viewBox="0 0 1024 1024" version="1.1" xmlns="http://www.w3.org/2000/svg" p-id="998" xmlns:xlink="http://www.w3.org/1999/xlink" width="32" height="32"><defs><style type="text/css"></style></defs><path d="M512 113.407c-219.79 0-398.601 178.816-398.601 398.612 0 219.774 178.812 398.574 398.601 398.574s398.601-178.8 398.601-398.574c0-219.795-178.812-398.612-398.601-398.612z m40.218 689.688h-80.046v-80.047h80.046v80.047zM679.12 446.206c-11.714 21.086-34.624 46.728-68.723 76.923-22.909 20.304-37.874 35.276-44.904 44.904-7.028 9.633-12.238 20.694-15.618 33.19-3.387 12.494-5.34 32.799-5.858 60.913h-67.55c-0.263-9.372-0.39-16.4-0.39-21.086 0-27.589 3.904-51.407 11.713-71.456 5.723-15.094 14.965-30.322 27.722-45.684 9.372-11.19 26.223-27.53 50.566-49.003 24.338-21.477 40.152-38.59 47.442-51.348 7.285-12.75 10.934-26.68 10.934-41.78 0-27.333-10.678-51.348-32.019-72.043-21.348-20.695-47.51-31.041-78.485-31.041-29.938 0-54.929 9.37-74.97 28.114-20.048 18.742-33.19 48.026-39.438 87.855l-72.237-8.59c6.505-53.36 25.833-94.23 57.985-122.607 32.147-28.37 74.642-42.56 127.488-42.56 55.965 0 100.607 15.227 133.931 45.683 33.318 30.457 49.98 67.295 49.98 110.503 0.002 24.99-5.855 48.028-17.57 69.113z" fill="#cdcdcd" p-id="999"></path></svg>