<?xml version="1.0" standalone="no"?><!DOCTYPE svg PUBLIC "-//W3C//DTD SVG 1.1//EN" "http://www.w3.org/Graphics/SVG/1.1/DTD/svg11.dtd"><svg width="32" height="32" viewBox="0 0 32 32" version="1.1" xmlns="http://www.w3.org/2000/svg" xmlns:xlink="http://www.w3.org/1999/xlink"><defs><style type="text/css"><![CDATA[
@font-face { font-family: ifont; src: url("//at.alicdn.com/t/font_1442373896_4754455.eot?#iefix") format("embedded-opentype"), url("//at.alicdn.com/t/font_1442373896_4754455.woff") format("woff"), url("//at.alicdn.com/t/font_1442373896_4754455.ttf") format("truetype"), url("//at.alicdn.com/t/font_1442373896_4754455.svg#ifont") format("svg"); }

]]></style></defs><g class="transform-group"><g transform="scale(0.03125, 0.03125)"><path d="M693.236737 240.652965 336.850911 240.652965C173.067684 240.652965 39.86187 373.857756 39.86187 537.640983s133.204791 296.988018 296.988018 296.988018l356.385826 0c163.783227 0 296.988018-133.204791 296.988018-296.988018S857.019964 240.652965 693.236737 240.652965zM336.824305 813.482379c-151.901619 0-275.841396-123.939777-275.841396-275.841396s123.939777-275.843442 275.841396-275.843442 275.843442 123.941823 275.843442 275.843442S488.725924 813.482379 336.824305 813.482379zM697.79045 817.793568 457.720769 817.793568c84.041068-63.070454 171.108053-163.213245 171.108053-275.843442s-73.491805-212.770941-157.531849-275.841396l226.493477 0c151.901619 0 275.841396 123.939777 275.841396 275.841396S849.692069 817.793568 697.79045 817.793568z" fill="#a9b7b7"></path></g></g></svg>